<?xml version="1.0" encoding="UTF-8" standalone="no"?><svg width="32" height="32" viewBox="0 0 32 32" fill="none" xmlns="http://www.w3.org/2000/svg">
<path d="M26.6667 21.9333L25.8667 21.2667C23.2 18.7333 21.3333 17 21.3333 15C21.3333 13.4 22.6667 12.0667 24.2667 12.0667C25.2 12.0667 26 12.4667 26.6667 13.1333C27.3333 12.4667 28.1333 12.0667 29.0667 12.0667C30.6667 12.0667 32 13.4 32 15C32 17 30.1333 18.6 27.4667 21.1333L26.6667 21.9333ZM18.2667 5.66667H16V3H8V5.66667H5.73333C4.8 5.66667 4 6.46667 4 7.4V27.8C4 28.8667 4.8 29.6667 5.73333 29.6667H18.1333C19.0667 29.6667 19.8667 28.8667 19.8667 27.9333V7.4C20 6.46667 19.2 5.66667 18.2667 5.66667ZM17.3333 27H6.66667V8.33333H17.3333V27Z" fill="#665300"/>
</svg>
