<?xml version="1.0" encoding="UTF-8" standalone="no"?><svg width="48" height="48" viewBox="0 0 48 48" fill="none" xmlns="http://www.w3.org/2000/svg">
<path d="M24.0001 47.8318C17.4236 43.3602 17.7055 37.4912 24.0001 34.0444C30.9525 37.8639 29.825 43.7329 24.0001 47.8318Z" fill="#00A8EC"/>
<path d="M24 47.8318L23.9537 47.8987L24.0008 47.9306L24.0473 47.8979L24 47.8318ZM24 34.0444L24.0396 33.9736L24.0001 33.9518L23.9604 33.9734L24 34.0444ZM24.0462 47.7649C20.77 45.5374 19.2203 42.9743 19.255 40.555C19.2897 38.1373 20.9075 35.8306 24.0395 34.1156L23.9604 33.9734C20.7977 35.7052 19.1271 38.0564 19.0914 40.5527C19.0557 43.0473 20.6532 45.6546 23.9537 47.8987L24.0462 47.7649ZM23.9603 34.1154C27.4197 36.0159 28.8484 38.4132 28.7098 40.8287C28.5709 43.251 26.8549 45.7233 23.9526 47.7657L24.0473 47.8979C26.97 45.8413 28.7303 43.3297 28.8732 40.838C29.0165 38.3394 27.5327 35.8925 24.0396 33.9736L23.9603 34.1154Z" fill="#00A8EC"/>
<path d="M41.2372 41.0299C42.6988 33.2568 38.3141 29.3046 31.4051 31.2807C29.2128 38.8561 34.1953 42.2155 41.2372 41.0299Z" fill="#00A8EC"/>
<path d="M41.237 41.0299L41.3174 41.0447L41.3069 41.1003L41.2508 41.1098L41.237 41.0299ZM31.4049 31.2807L31.3262 31.2583L31.3386 31.2152L31.3821 31.2027L31.4049 31.2807ZM41.1565 41.015C41.8846 37.1428 41.1527 34.244 39.4029 32.5575C37.6542 30.8723 34.8653 30.3754 31.4275 31.3586L31.3821 31.2027C34.8535 30.2099 37.7114 30.7012 39.5169 32.4412C41.3213 34.1801 42.0509 37.1439 41.3174 41.0447L41.1565 41.015ZM31.4834 31.303C30.3927 35.0723 31.0921 37.7692 32.9125 39.3802C34.7382 40.9955 37.7146 41.5406 41.2233 40.9498L41.2508 41.1098C37.7174 41.7047 34.6816 41.1629 32.8036 39.5012C30.9204 37.835 30.2247 35.0643 31.3262 31.2583L31.4834 31.303Z" fill="#00A8EC"/>
<path d="M7.13881 41.0299C5.67727 33.2568 10.0619 29.3046 16.9709 31.2807C19.1633 38.8561 14.1808 42.2155 7.13881 41.0299Z" fill="#00A8EC"/>
<path d="M7.13901 41.0299L7.05859 41.0447L7.06904 41.1003L7.12532 41.1098L7.13901 41.0299ZM16.9711 31.2807L17.0498 31.2583L17.0374 31.2152L16.9939 31.2027L16.9711 31.2807ZM7.21944 41.015C6.49138 37.1428 7.22327 34.244 8.97313 32.5575C10.7218 30.8723 13.5108 30.3754 16.9485 31.3586L16.9939 31.2027C13.5225 30.2099 10.6646 30.7012 8.85909 32.4412C7.05474 34.1801 6.32511 37.1439 7.05859 41.0447L7.21944 41.015ZM16.8926 31.303C17.9834 35.0723 17.284 37.7692 15.4635 39.3802C13.6379 40.9955 10.6614 41.5406 7.15272 40.9498L7.12532 41.1098C10.6586 41.7047 13.6945 41.1629 15.5725 39.5012C17.4555 37.835 18.1514 35.0643 17.0498 31.2583L16.8926 31.303Z" fill="#00A8EC"/>
<path d="M47.8638 23.8967C43.3542 30.4178 37.4353 30.1383 33.959 23.8967C37.8111 17.0031 43.73 18.121 47.8638 23.8967Z" fill="#00A8EC"/>
<path d="M47.864 23.8967L47.9315 23.9425L47.9638 23.8959L47.9307 23.8498L47.864 23.8967ZM33.9591 23.8967L33.8877 23.8574L33.8657 23.8967L33.8875 23.9359L33.9591 23.8967ZM47.7965 23.8509C45.55 27.0993 42.9651 28.636 40.5252 28.6015C38.0869 28.5672 35.7605 26.9632 34.0309 23.8575L33.8875 23.9359C35.6341 27.0719 38.0053 28.7283 40.5229 28.7638C43.0388 28.7993 45.6683 27.2152 47.9315 23.9425L47.7965 23.8509ZM34.0307 23.936C35.9475 20.506 38.3652 19.0893 40.8013 19.2266C43.2443 19.3644 45.7375 21.0659 47.7973 23.9436L47.9307 23.8498C45.8566 20.9518 43.3235 19.2064 40.8106 19.0647C38.2907 18.9225 35.823 20.3939 33.8877 23.8574L34.0307 23.936Z" fill="#00A8EC"/>
<path d="M0.13623 23.8967C4.6459 30.4178 10.5648 30.1383 14.0411 23.8967C10.189 17.0031 4.2701 18.121 0.13623 23.8967Z" fill="#00A8EC"/>
<path d="M0.136379 23.8967L0.0689008 23.9425L0.0366211 23.8959L0.0696553 23.8498L0.136379 23.8967ZM14.0412 23.8967L14.1127 23.8574L14.1346 23.8967L14.1128 23.9359L14.0412 23.8967ZM0.203857 23.8509C2.45035 27.0993 5.03517 28.636 7.47517 28.6015C9.91354 28.5672 12.2399 26.9632 13.9695 23.8575L14.1128 23.9359C12.3662 27.0719 9.99503 28.7283 7.47749 28.7638C4.96154 28.7993 2.33208 27.2152 0.0689008 23.9425L0.203857 23.8509ZM13.9696 23.936C12.0529 20.506 9.6352 19.0893 7.19911 19.2266C4.75617 19.3644 2.26281 21.0659 0.203101 23.9436L0.0696553 23.8498C2.1438 20.9518 4.67684 19.2064 7.18983 19.0647C9.70968 18.9225 12.1774 20.3939 14.1127 23.8574L13.9696 23.936Z" fill="#00A8EC"/>
<path d="M41.1918 6.937C33.3527 5.48782 29.3667 9.83538 31.3596 16.686C38.9995 18.8598 42.3876 13.9195 41.1918 6.937Z" fill="#00A8EC"/>
<path d="M41.1915 6.937L41.2065 6.85725L41.2625 6.86763L41.2721 6.92343L41.1915 6.937ZM31.3593 16.686L31.3368 16.764L31.2933 16.7517L31.2807 16.7086L31.3593 16.686ZM41.1765 7.01676C37.2714 6.29484 34.3478 7.02056 32.6469 8.75563C30.9473 10.4896 30.4463 13.2549 31.4379 16.6636L31.2807 16.7086C30.2794 13.2666 30.7748 10.4328 32.5297 8.64254C34.2834 6.85346 37.2724 6.12998 41.2065 6.85725L41.1765 7.01676ZM31.3819 16.6082C35.1833 17.6897 37.9031 16.9962 39.5277 15.1911C41.1568 13.3809 41.7067 10.4296 41.1108 6.95059L41.2721 6.92343C41.8721 10.4268 41.3257 13.437 39.6498 15.2992C37.9694 17.1664 35.1753 17.8563 31.3368 16.764L31.3819 16.6082Z" fill="#00A8EC"/>
<path d="M6.99642 6.937C14.8356 5.48782 18.8216 9.83538 16.8286 16.686C9.18874 18.8598 5.80062 13.9195 6.99642 6.937Z" fill="#00A8EC"/>
<path d="M6.99616 6.937L6.98116 6.85725L6.92506 6.86763L6.9155 6.92343L6.99616 6.937ZM16.8284 16.686L16.8509 16.764L16.8944 16.7517L16.9069 16.7086L16.8284 16.686ZM7.01116 7.01676C10.9162 6.29484 13.8398 7.02056 15.5407 8.75563C17.2403 10.4896 17.7413 13.2549 16.7497 16.6636L16.9069 16.7086C17.9082 13.2666 17.4128 10.4328 15.658 8.64254C13.9042 6.85346 10.9152 6.12998 6.98116 6.85725L7.01116 7.01676ZM16.8057 16.6082C13.0044 17.6897 10.2845 16.9962 8.65992 15.1911C7.03074 13.3809 6.48102 10.4296 7.07682 6.95059L6.9155 6.92343C6.31551 10.4268 6.86194 13.437 8.53783 15.2992C10.2183 17.1664 13.0124 17.8563 16.8509 16.764L16.8057 16.6082Z" fill="#00A8EC"/>
<path d="M23.9151 0.135223C30.4916 4.60678 30.2098 10.4757 23.9151 13.9226C16.9627 10.1031 18.09 4.23415 23.9151 0.135223Z" fill="#00A8EC"/>
<path d="M23.9154 0.13523L23.9616 0.0683229L23.9146 0.0363159L23.8681 0.069071L23.9154 0.13523ZM23.9154 13.9226L23.8757 13.9934L23.9152 14.0152L23.9549 13.9936L23.9154 13.9226ZM23.8692 0.202138C27.1453 2.42964 28.6951 4.99263 28.6603 7.412C28.6257 9.82977 27.0078 12.1365 23.8758 13.8515L23.9549 13.9936C27.1176 12.2617 28.7882 9.91057 28.8239 7.4143C28.8597 4.91961 27.2622 2.31238 23.9616 0.0683229L23.8692 0.202138ZM23.9551 13.8516C20.4957 11.9511 19.067 9.55378 19.2055 7.13828C19.3445 4.71599 21.0605 2.24369 23.9627 0.201389L23.8681 0.069071C20.9454 2.12569 19.1851 4.63732 19.0422 7.12907C18.8988 9.62763 20.3826 12.0745 23.8757 13.9934L23.9551 13.8516Z" fill="#00A8EC"/>
<path d="M19.678 22.1203L17.2354 23.7972L19.678 25.4741L19.1144 28.4551L22.1209 27.8961L23.9998 30.3182L25.8789 27.8961L28.6974 28.4551L28.1337 25.4741L30.5765 23.7972L28.1337 21.934L28.6974 19.1393L25.691 19.6983L23.9998 17.2762L22.0269 19.6983L19.1144 19.1393L19.678 22.1203Z" fill="#00A8EC" stroke="#00A8EC" stroke-width="1.2"/>
</svg>
