<?xml version="1.0" encoding="UTF-8" standalone="no"?><svg width="56" height="56" viewBox="0 0 56 56" fill="none" xmlns="http://www.w3.org/2000/svg">
<g clip-path="url(#clip0_822_440)">
<path d="M9.83333 30.3333C12.4 30.3333 14.5 28.2333 14.5 25.6667C14.5 23.1 12.4 21 9.83333 21C7.26667 21 5.16667 23.1 5.16667 25.6667C5.16667 28.2333 7.26667 30.3333 9.83333 30.3333ZM12.47 32.9C11.6067 32.76 10.7433 32.6667 9.83333 32.6667C7.52333 32.6667 5.33 33.1567 3.34667 34.02C1.62 34.7667 0.5 36.4467 0.5 38.3367V42H11V38.2433C11 36.3067 11.5367 34.4867 12.47 32.9ZM47.1667 30.3333C49.7333 30.3333 51.8333 28.2333 51.8333 25.6667C51.8333 23.1 49.7333 21 47.1667 21C44.6 21 42.5 23.1 42.5 25.6667C42.5 28.2333 44.6 30.3333 47.1667 30.3333ZM56.5 38.3367C56.5 36.4467 55.38 34.7667 53.6533 34.02C51.67 33.1567 49.4767 32.6667 47.1667 32.6667C46.2567 32.6667 45.3933 32.76 44.53 32.9C45.4633 34.4867 46 36.3067 46 38.2433V42H56.5V38.3367ZM38.3933 31.85C35.6633 30.6367 32.3033 29.75 28.5 29.75C24.6967 29.75 21.3367 30.66 18.6067 31.85C16.0867 32.97 14.5 35.49 14.5 38.2433V42H42.5V38.2433C42.5 35.49 40.9133 32.97 38.3933 31.85ZM19.33 37.3333C19.54 36.7967 19.6333 36.4233 21.4533 35.7233C23.7167 34.8367 26.0967 34.4167 28.5 34.4167C30.9033 34.4167 33.2833 34.8367 35.5467 35.7233C37.3433 36.4233 37.4367 36.7967 37.67 37.3333H19.33ZM28.5 18.6667C29.7833 18.6667 30.8333 19.7167 30.8333 21C30.8333 22.2833 29.7833 23.3333 28.5 23.3333C27.2167 23.3333 26.1667 22.2833 26.1667 21C26.1667 19.7167 27.2167 18.6667 28.5 18.6667ZM28.5 14C24.6267 14 21.5 17.1267 21.5 21C21.5 24.8733 24.6267 28 28.5 28C32.3733 28 35.5 24.8733 35.5 21C35.5 17.1267 32.3733 14 28.5 14Z" fill="#2513A0"/>
</g>
<defs>
<clipPath id="clip0_822_440">
<rect width="56" height="56" fill="white"/>
</clipPath>
</defs>
</svg>
