<?xml version="1.0" encoding="UTF-8" standalone="no"?><svg width="32" height="32" viewBox="0 0 32 32" fill="none" xmlns="http://www.w3.org/2000/svg">
<path d="M29.3333 4H9.33333C8.41333 4 7.69333 4.46667 7.21333 5.17333L0 16L7.21333 26.8133C7.69333 27.52 8.50667 28 9.42667 28H29.3333C30.8 28 32 26.8 32 25.3333V6.66667C32 5.2 30.8 4 29.3333 4ZM29.3333 25.3333H9.42667L3.2 16L9.41333 6.66667H29.3333V25.3333Z" fill="#660005"/>
<path d="M12 18C13.1046 18 14 17.1046 14 16C14 14.8954 13.1046 14 12 14C10.8954 14 10 14.8954 10 16C10 17.1046 10.8954 18 12 18Z" fill="#660005"/>
<path d="M18.667 18C19.7716 18 20.667 17.1046 20.667 16C20.667 14.8954 19.7716 14 18.667 14C17.5624 14 16.667 14.8954 16.667 16C16.667 17.1046 17.5624 18 18.667 18Z" fill="#660005"/>
<path d="M25.333 18C26.4376 18 27.333 17.1046 27.333 16C27.333 14.8954 26.4376 14 25.333 14C24.2284 14 23.333 14.8954 23.333 16C23.333 17.1046 24.2284 18 25.333 18Z" fill="#660005"/>
</svg>
