<?xml version="1.0" encoding="UTF-8" standalone="no"?><svg width="32" height="32" viewBox="0 0 32 32" fill="none" xmlns="http://www.w3.org/2000/svg">
<path d="M22.667 1.33337H9.33366C8.62641 1.33337 7.94814 1.61433 7.44804 2.11442C6.94794 2.61452 6.66699 3.2928 6.66699 4.00004V28C6.66699 28.7073 6.94794 29.3856 7.44804 29.8857C7.94814 30.3858 8.62641 30.6667 9.33366 30.6667H22.667C23.3742 30.6667 24.0525 30.3858 24.5526 29.8857C25.0527 29.3856 25.3337 28.7073 25.3337 28V4.00004C25.3337 3.2928 25.0527 2.61452 24.5526 2.11442C24.0525 1.61433 23.3742 1.33337 22.667 1.33337ZM22.667 25.3334H9.33366V6.66671H22.667V25.3334ZM21.3337 17.3334H17.3337V10.6667H14.667V17.3334H10.667L16.0003 22.6667L21.3337 17.3334Z" fill="#005C66"/>
</svg>
